<?xml version="1.0" encoding="utf-8" ?>
<svg baseProfile="tiny" height="100%" version="1.2" width="100%" xmlns="http://www.w3.org/2000/svg" xmlns:ev="http://www.w3.org/2001/xml-events" xmlns:xlink="http://www.w3.org/1999/xlink"><defs /><polygon fill="black" points="262,686 262,723 261,724 229,724 228,725 228,740 261,740 262,741 262,778 280,778 280,741 281,740 314,740 314,724 281,724 280,723 280,686" /><polygon fill="black" points="368,608 368,662 367,663 317,663 317,680 367,680 368,681 368,736 388,736 388,681 389,680 439,680 439,663 389,663 388,662 388,608" /><polygon fill="black" points="154,608 154,662 153,663 103,663 103,681 153,681 154,682 154,736 174,736 174,682 175,681 225,681 225,663 175,663 174,662 174,608" /><polygon fill="black" points="1874,539 1874,625 1875,626 1875,632 1877,634 1877,636 1878,637 1878,639 1879,640 1879,641 1880,642 1880,643 1882,645 1882,646 1888,652 1889,652 1891,654 1892,654 1893,655 1894,655 1896,657 1898,657 1899,658 1900,658 1902,660 1904,660 1905,661 1910,661 1911,662 1916,662 1917,663 1941,663 1942,662 1947,662 1948,661 1952,661 1953,660 1956,660 1958,658 1959,658 1960,657 1961,657 1962,656 1963,656 1964,655 1965,655 1967,653 1968,653 1976,645 1976,644 1977,643 1977,642 1979,640 1979,639 1980,638 1980,637 1981,636 1981,634 1982,633 1982,630 1983,629 1983,539 1957,539 1957,592 1956,593 1956,594 1957,595 1957,596 1956,597 1956,620 1955,621 1955,626 1954,627 1954,629 1953,630 1953,631 1951,633 1951,634 1950,635 1950,636 1948,638 1947,638 1945,640 1944,640 1943,641 1940,641 1939,642 1936,642 1935,643 1922,643 1921,642 1918,642 1917,641 1914,641 1912,639 1911,639 1906,634 1906,633 1905,632 1905,631 1904,630 1904,629 1903,628 1903,626 1902,625 1902,619 1901,618 1901,539" /><polygon fill="black" points="1487,537 1486,538 1481,538 1480,539 1475,539 1473,541 1471,541 1470,542 1469,542 1468,543 1466,543 1464,545 1463,545 1461,547 1460,547 1457,550 1456,550 1448,558 1448,559 1446,561 1446,562 1444,564 1444,565 1443,566 1443,567 1442,568 1442,569 1440,571 1440,573 1439,574 1439,576 1438,577 1438,579 1437,580 1437,583 1436,584 1436,585 1435,586 1435,592 1434,593 1434,610 1435,611 1435,616 1436,617 1436,618 1437,619 1437,622 1438,623 1438,625 1439,626 1439,628 1440,629 1440,631 1442,633 1442,634 1443,635 1443,637 1444,637 1445,638 1445,639 1449,643 1449,644 1454,649 1455,649 1456,650 1456,651 1457,651 1459,653 1460,653 1462,655 1463,655 1465,657 1466,657 1467,658 1468,658 1469,659 1470,659 1471,660 1472,660 1473,661 1477,661 1478,662 1481,662 1482,663 1486,663 1487,664 1492,664 1493,665 1516,665 1517,664 1522,664 1523,663 1527,663 1528,662 1532,662 1533,661 1536,661 1537,660 1539,660 1541,658 1542,658 1543,657 1544,657 1545,656 1546,656 1546,631 1544,631 1543,632 1542,632 1541,633 1539,633 1538,634 1536,634 1535,635 1534,635 1533,636 1532,636 1531,637 1528,637 1527,638 1523,638 1522,639 1517,639 1516,640 1493,640 1492,639 1488,639 1487,638 1485,638 1484,637 1483,637 1481,635 1480,635 1478,633 1477,633 1476,632 1475,632 1471,628 1471,627 1470,626 1470,625 1468,623 1468,622 1466,620 1466,619 1465,618 1465,616 1464,615 1464,612 1463,611 1463,607 1464,606 1554,606 1554,603 1553,602 1553,591 1552,590 1552,583 1551,582 1551,579 1550,578 1550,576 1549,575 1549,573 1548,572 1548,570 1546,568 1546,567 1545,566 1545,565 1544,564 1544,562 1543,561 1543,560 1539,556 1539,555 1534,550 1533,550 1530,547 1529,547 1527,545 1526,545 1525,544 1524,544 1523,543 1522,543 1521,542 1520,542 1519,541 1518,541 1517,540 1515,540 1514,539 1511,539 1510,538 1503,538 1502,537" /><polygon fill="black" points="1745,536 1745,542 1744,543 1742,543 1741,542 1740,542 1739,541 1737,541 1735,539 1731,539 1730,538 1726,538 1725,537 1706,537 1705,538 1698,538 1697,539 1694,539 1693,540 1692,540 1691,541 1689,541 1687,543 1686,543 1685,544 1683,544 1681,546 1680,546 1676,550 1675,550 1670,555 1670,556 1668,558 1667,558 1667,559 1665,561 1665,562 1664,563 1664,564 1663,565 1663,566 1662,567 1662,568 1661,569 1661,570 1660,571 1660,572 1659,573 1659,575 1658,576 1658,578 1657,579 1657,582 1656,583 1656,588 1655,589 1655,610 1656,611 1656,618 1657,619 1657,622 1658,623 1658,625 1659,626 1659,628 1661,630 1661,631 1662,632 1662,633 1663,634 1663,636 1665,638 1665,639 1669,643 1669,644 1674,649 1675,649 1678,652 1679,652 1681,654 1682,654 1683,655 1684,655 1685,656 1686,656 1687,657 1688,657 1689,658 1690,658 1691,659 1692,659 1693,660 1695,660 1696,661 1700,661 1701,662 1704,662 1705,663 1713,663 1714,664 1735,664 1736,663 1745,663 1746,662 1751,662 1752,661 1758,661 1759,660 1762,660 1763,659 1764,659 1765,658 1767,658 1768,657 1770,657 1770,646 1771,645 1771,624 1772,623 1772,536" /><polygon fill="black" points="929,536 929,542 928,543 926,543 924,541 922,541 921,540 920,540 919,539 915,539 914,538 910,538 909,537 889,537 888,538 883,538 882,539 878,539 876,541 874,541 873,542 872,542 871,543 870,543 869,544 868,544 867,545 866,545 864,547 863,547 863,548 862,549 861,549 860,550 859,550 858,551 858,552 853,557 853,558 852,559 851,559 850,560 850,561 848,563 848,565 847,566 847,567 846,568 846,569 845,570 845,572 843,574 843,576 842,577 842,579 841,580 841,585 840,586 840,615 841,616 841,620 842,621 842,623 843,624 843,626 844,627 844,628 845,629 845,630 846,631 846,633 847,634 847,635 848,636 848,637 850,639 850,640 851,641 852,641 853,642 853,643 858,648 858,649 859,650 860,650 861,651 862,651 864,653 865,653 866,654 867,654 869,656 870,656 871,657 873,657 874,658 875,658 876,659 877,659 878,660 879,660 880,661 884,661 885,662 888,662 889,663 903,663 904,664 921,664 922,663 930,663 931,662 936,662 937,661 942,661 943,660 946,660 947,659 948,659 949,658 952,658 953,657 955,657 955,652 956,651 956,536" /><polygon fill="black" points="97,530 97,566 96,567 63,567 63,581 96,581 97,582 97,617 110,617 110,582 111,581 118,581 119,580 144,580 145,579 145,567 111,567 110,566 110,530" /><polygon fill="black" points="426,528 426,565 425,566 392,566 392,582 425,582 426,583 426,621 444,621 444,583 445,582 479,582 479,566 445,566 444,565 444,528" /><polygon fill="black" points="259,501 259,561 258,562 202,562 202,585 258,585 259,586 259,647 282,647 282,586 283,585 340,585 340,562 283,562 282,561 282,501" /><polygon fill="black" points="647,486 647,559 646,560 576,560 576,585 646,585 647,586 647,665 673,665 673,586 674,585 744,585 744,560 674,560 673,559 673,486" /><polygon fill="black" points="1083,478 1083,599 1084,600 1083,601 1083,602 1084,603 1084,650 1085,651 1085,656 1086,657 1088,657 1089,658 1092,658 1094,660 1097,660 1098,661 1103,661 1104,662 1109,662 1110,663 1150,663 1151,662 1155,662 1156,661 1160,661 1161,660 1162,660 1163,659 1164,659 1165,658 1166,658 1167,657 1168,657 1169,656 1170,656 1171,655 1172,655 1173,654 1174,654 1175,653 1176,653 1179,650 1180,650 1186,644 1186,643 1187,642 1188,642 1188,641 1190,639 1190,638 1191,637 1191,636 1192,635 1192,634 1193,633 1193,632 1194,631 1194,630 1196,628 1196,626 1197,625 1197,623 1198,622 1198,620 1199,619 1199,613 1200,612 1200,588 1199,587 1199,582 1198,581 1198,579 1197,578 1197,575 1196,574 1196,572 1194,570 1194,569 1193,568 1193,567 1192,566 1192,565 1191,564 1191,563 1190,562 1190,561 1188,559 1188,558 1187,558 1186,557 1186,556 1179,549 1178,549 1175,546 1174,546 1172,544 1170,544 1169,543 1168,543 1167,542 1166,542 1165,541 1163,541 1161,539 1158,539 1157,538 1152,538 1151,537 1132,537 1131,538 1126,538 1125,539 1119,539 1118,540 1117,540 1116,541 1113,541 1112,542 1111,541 1111,539 1110,538 1110,478" /><polygon fill="black" points="1301,453 1301,687 1328,687 1328,453" /><polygon fill="black" points="368,410 368,464 367,465 318,465 317,466 317,484 367,484 368,485 368,539 388,539 388,485 389,484 439,484 439,465 389,465 388,464 388,410" /><polygon fill="black" points="154,410 154,464 152,466 103,466 103,482 152,482 154,484 154,538 173,538 173,483 174,482 224,482 224,466 174,466 173,465 173,410" /><polygon fill="black" points="264,372 264,408 263,409 230,409 230,421 263,421 264,422 264,459 278,459 278,422 279,421 312,421 312,409 279,409 278,408 278,372" /></svg>